<svg width="14" height="14" viewBox="0 0 14 14" fill="none" xmlns="http://www.w3.org/2000/svg">
<path fill-rule="evenodd" clip-rule="evenodd" d="M9.99812 3.52731C9.0941 2.62274 7.89185 2.12405 6.61106 2.1235C3.97095 2.1235 1.82295 4.27041 1.8224 6.90942C1.8213 7.74918 2.04154 8.57466 2.46114 9.30238L1.78175 11.7827L4.32026 11.117C5.02271 11.4993 5.8092 11.6997 6.60887 11.6997H6.61106C9.25008 11.6997 11.3981 9.55228 11.3992 6.91326C11.3997 5.63467 10.9021 4.43243 9.99812 3.52731Z" stroke="#FD6C01" stroke-width="0.823833" stroke-linecap="round" stroke-linejoin="round"/>
<path d="M7.19221 7.80987L7.41519 7.58853C7.62005 7.38532 7.94409 7.35951 8.18026 7.52537C8.40873 7.68575 8.61524 7.82964 8.80747 7.96365C9.11284 8.17565 9.14964 8.61064 8.88656 8.87316L8.68939 9.07034" stroke="#FD6C01" stroke-width="0.823833" stroke-linecap="round" stroke-linejoin="round"/>
<path d="M4.47345 4.85451L4.67062 4.65734C4.93315 4.39481 5.36813 4.43161 5.58013 4.73642C5.71359 4.92865 5.85749 5.13516 6.01841 5.36364C6.18428 5.5998 6.15901 5.92384 5.95525 6.1287L5.73391 6.35169" stroke="#FD6C01" stroke-width="0.823833" stroke-linecap="round" stroke-linejoin="round"/>
<path d="M8.68939 9.0703C7.87599 9.87985 6.50898 9.19223 5.42976 8.11246" stroke="#FD6C01" stroke-width="0.823833" stroke-linecap="round" stroke-linejoin="round"/>
<path d="M5.43077 8.11403C4.35154 7.03426 3.66392 5.6678 4.47347 4.8544" stroke="#FD6C01" stroke-width="0.823833" stroke-linecap="round" stroke-linejoin="round"/>
<path d="M5.73387 6.35162C5.90907 6.62788 6.13371 6.90139 6.38745 7.15514L6.38854 7.15623C6.64228 7.40997 6.9158 7.63461 7.19206 7.80981" stroke="#FD6C01" stroke-width="0.823833" stroke-linecap="round" stroke-linejoin="round"/>
</svg>
